<svg xmlns="http://www.w3.org/2000/svg" viewBox="0 0 64 64">
  <rect width="64" height="64" rx="14" fill="#750303"/>
  <g transform="translate(12.8 12.8) scale(1.6)" fill="none" stroke="#ffffff"
     stroke-width="1.7" stroke-linecap="round" stroke-linejoin="round">
    <rect x="3" y="8" width="18" height="4" rx="1"/>
    <path d="M12 8v13"/>
    <path d="M19 12v7a2 2 0 0 1-2 2H7a2 2 0 0 1-2-2v-7"/>
    <path d="M7.5 8a2.5 2.5 0 0 1 0-5A4.8 8 0 0 1 12 8a4.8 8 0 0 1 4.5-5 2.5 2.5 0 0 1 0 5"/>
  </g>
</svg>
